<?xml version="1.0" encoding="UTF-8" standalone="yes"?><svg xmlns="http://www.w3.org/2000/svg" xmlns:xlink="http://www.w3.org/1999/xlink" height="244pt" style="width:885px;height:244px;" version="1.1" viewBox="0 0 885 244" width="605pt"><defs><filter height="300%" id="f1" width="300%" x="-1" y="-1"><feGaussianBlur result="blurOut" stdDeviation="2.0"/><feColorMatrix in="blurOut" result="blurOut2" type="matrix" values="0 0 0 0 0 0 0 0 0 0 0 0 0 0 0 0 0 0 .4 0"/><feOffset dx="4.0" dy="4.0" in="blurOut2" result="blurOut3"/><feBlend in="SourceGraphic" in2="blurOut3" mode="normal"/></filter></defs><g><rect fill="#FFFFFF" filter="url(#f1)" height="100" style="stroke: #000000; stroke-width: 2.0;" width="654" x="97" y="24"/><text fill="#000000" font-family="sans-serif" font-size="14" font-weight="bold" lengthAdjust="spacingAndGlyphs" textLength="49" x="399.5" y="40">nodes</text><ellipse cx="204.8585" cy="84.0406" fill="#FEFECE" filter="url(#f1)" rx="91.8585" ry="23.5406" style="stroke: #A80036; stroke-width: 1.5;"/><text fill="#000000" font-family="sans-serif" font-size="14" lengthAdjust="spacingAndGlyphs" textLength="37" x="186.3585" y="76.747">Node</text><text fill="#000000" font-family="sans-serif" font-size="14" lengthAdjust="spacingAndGlyphs" textLength="141" x="134.3585" y="93.0439">node1.example.com</text><ellipse cx="423.8585" cy="84.0406" fill="#FEFECE" filter="url(#f1)" rx="91.8585" ry="23.5406" style="stroke: #A80036; stroke-width: 1.5;"/><text fill="#000000" font-family="sans-serif" font-size="14" lengthAdjust="spacingAndGlyphs" textLength="37" x="405.3585" y="76.747">Node</text><text fill="#000000" font-family="sans-serif" font-size="14" lengthAdjust="spacingAndGlyphs" textLength="141" x="353.3585" y="93.0439">node2.example.com</text><ellipse cx="642.8585" cy="84.0406" fill="#FEFECE" filter="url(#f1)" rx="91.8585" ry="23.5406" style="stroke: #A80036; stroke-width: 1.5;"/><text fill="#000000" font-family="sans-serif" font-size="14" lengthAdjust="spacingAndGlyphs" textLength="37" x="624.3585" y="76.747">Node</text><text fill="#000000" font-family="sans-serif" font-size="14" lengthAdjust="spacingAndGlyphs" textLength="141" x="572.3585" y="93.0439">node3.example.com</text><ellipse cx="424.2537" cy="213.2007" fill="#FEFECE" filter="url(#f1)" rx="111.5037" ry="24.7007" style="stroke: #A80036; stroke-width: 1.5;"/><text fill="#000000" font-family="sans-serif" font-size="14" lengthAdjust="spacingAndGlyphs" textLength="98" x="375.2537" y="206.6357">ForemanProxy</text><text fill="#000000" font-family="sans-serif" font-size="14" lengthAdjust="spacingAndGlyphs" textLength="172" x="338.2537" y="222.9326">chefproxy1.example.com</text><ellipse cx="88.1137" cy="213.0298" fill="#FEFECE" filter="url(#f1)" rx="82.3637" ry="23.5298" style="stroke: #A80036; stroke-width: 1.5;"/><text fill="#000000" font-family="sans-serif" font-size="14" lengthAdjust="spacingAndGlyphs" textLength="32" x="72.1137" y="205.7184">Chef</text><text fill="#000000" font-family="sans-serif" font-size="14" lengthAdjust="spacingAndGlyphs" textLength="126" x="25.1137" y="222.0153">chef.example.com</text><ellipse cx="778.2294" cy="212.7661" fill="#FEFECE" filter="url(#f1)" rx="100.4794" ry="23.7661" style="stroke: #A80036; stroke-width: 1.5;"/><text fill="#000000" font-family="sans-serif" font-size="14" lengthAdjust="spacingAndGlyphs" textLength="61" x="747.7294" y="205.8395">Foreman</text><text fill="#000000" font-family="sans-serif" font-size="14" lengthAdjust="spacingAndGlyphs" textLength="153" x="701.7294" y="222.1364">foreman.example.com</text><path d="M237.404,106.081 C260.683,121.012 292.951,141.2764 322,158 C339.618,168.1431 359.293,178.7283 376.627,187.8121 " fill="none" style="stroke: #A80036; stroke-width: 1.0;"/><polygon fill="#A80036" points="381.451,190.3327,375.3271,182.6192,377.0196,188.0169,371.6219,189.7094,381.451,190.3327" style="stroke: #A80036; stroke-width: 1.0;"/><text fill="#000000" font-family="sans-serif" font-size="13" lengthAdjust="spacingAndGlyphs" textLength="91" x="323" y="154">1 chef handler</text><path d="M424,107.705 C424,128.798 424,160.3057 424,183.1678 " fill="none" style="stroke: #A80036; stroke-width: 1.0;"/><polygon fill="#A80036" points="424,188.1984,428,179.1984,424,183.1984,420,179.1984,424,188.1984" style="stroke: #A80036; stroke-width: 1.0;"/><path d="M607.326,105.687 C568.852,127.999 507.617,163.5096 466.633,187.2766 " fill="none" style="stroke: #A80036; stroke-width: 1.0;"/><polygon fill="#A80036" points="462.236,189.8267,472.0282,188.7715,466.5612,187.3182,468.0145,181.8512,462.236,189.8267" style="stroke: #A80036; stroke-width: 1.0;"/><path d="M175.68,213 C217.488,213 267.975,213 312.478,213 " fill="none" style="stroke: #A80036; stroke-width: 1.0;"/><polygon fill="#A80036" points="170.625,213,179.625,217,175.625,213,179.625,209,170.625,213" style="stroke: #A80036; stroke-width: 1.0;"/><text fill="#000000" font-family="sans-serif" font-size="13" lengthAdjust="spacingAndGlyphs" textLength="104" x="188.75" y="206">2 authentication</text><path d="M535.522,213 C579.243,213 629.169,213 672.308,213 " fill="none" style="stroke: #A80036; stroke-width: 1.0;"/><polygon fill="#A80036" points="677.535,213,668.535,209,672.535,213,668.535,217,677.535,213" style="stroke: #A80036; stroke-width: 1.0;"/><text fill="#000000" font-family="sans-serif" font-size="13" lengthAdjust="spacingAndGlyphs" textLength="104" x="553.75" y="206">3 upload of data</text></g></svg>
