<?xml version="1.0" encoding="UTF-8" standalone="no"?>
<!-- Created with Inkscape (http://www.inkscape.org/) -->

<svg
   xmlns:dc="http://purl.org/dc/elements/1.1/"
   xmlns:cc="http://creativecommons.org/ns#"
   xmlns:rdf="http://www.w3.org/1999/02/22-rdf-syntax-ns#"
   xmlns:svg="http://www.w3.org/2000/svg"
   xmlns="http://www.w3.org/2000/svg"
   xmlns:sodipodi="http://sodipodi.sourceforge.net/DTD/sodipodi-0.dtd"
   xmlns:inkscape="http://www.inkscape.org/namespaces/inkscape"
   width="209.06708"
   height="175.87849"
   id="svg2"
   version="1.1"
   inkscape:version="0.48.5 r10040"
   sodipodi:docname="helmet.svg">
  <defs
     id="defs4" />
  <sodipodi:namedview
     id="base"
     pagecolor="#ffffff"
     bordercolor="#666666"
     borderopacity="1.0"
     inkscape:pageopacity="0.0"
     inkscape:pageshadow="2"
     inkscape:zoom="0.35"
     inkscape:cx="328.63851"
     inkscape:cy="152.3037"
     inkscape:document-units="px"
     inkscape:current-layer="layer1"
     showgrid="false"
     inkscape:window-width="1366"
     inkscape:window-height="742"
     inkscape:window-x="0"
     inkscape:window-y="26"
     inkscape:window-maximized="1"
     fit-margin-top="0"
     fit-margin-left="0"
     fit-margin-right="0"
     fit-margin-bottom="0" />
  <metadata
     id="metadata7">
    <rdf:RDF>
      <cc:Work
         rdf:about="">
        <dc:format>image/svg+xml</dc:format>
        <dc:type
           rdf:resource="http://purl.org/dc/dcmitype/StillImage" />
        <dc:title></dc:title>
      </cc:Work>
    </rdf:RDF>
  </metadata>
  <g
     inkscape:label="Layer 1"
     inkscape:groupmode="layer"
     id="layer1"
     transform="translate(-172.07578,-418.34823)">
    <path
       style="fill:#000000"
       d="m 264.64285,593.65295 c -1.65,-0.22527 -8.06722,-1.53148 -14.2605,-2.9027 -6.19327,-1.37121 -11.7753,-2.17495 -12.40451,-1.78608 -0.66348,0.41006 -0.87199,0.26691 -0.49641,-0.3408 0.80406,-1.30099 -3.73341,-2.53218 -6.67362,-1.81081 -1.19073,0.29214 -1.53859,0.25153 -0.77303,-0.0902 2.05907,-0.91926 -4.719,-3.53091 -7.29868,-2.81226 -1.46685,0.40864 -1.69389,0.30581 -0.75871,-0.34363 1.03595,-0.71942 0.86784,-1.04881 -0.75139,-1.47224 -1.14725,-0.30002 -1.83692,-0.1426 -1.53259,0.3498 0.30432,0.49241 -0.14247,0.62829 -0.99288,0.30196 -0.85041,-0.32633 -1.24996,-1.07265 -0.88789,-1.65848 0.41682,-0.67443 0.0288,-0.82361 -1.05768,-0.40667 -1.15642,0.44376 -1.48251,0.28071 -1,-0.5 0.49059,-0.7938 0.1425,-0.93842 -1.10573,-0.45943 -1.26114,0.48394 -4.68162,-1.0076 -11.11553,-4.84706 -5.1116,-3.05036 -9.60667,-6.10096 -9.98904,-6.77911 -0.5355,-0.94974 -0.38583,-0.94584 0.65149,0.017 1.69216,1.57065 3.30335,1.63609 2.35121,0.0955 -0.44563,-0.72104 -0.27393,-0.88282 0.45729,-0.4309 0.64395,0.39798 0.92588,1.11993 0.6265,1.60434 -0.29937,0.4844 0.3387,1.3533 1.41795,1.9309 2.48297,1.32884 3.38895,1.33683 2.57679,0.0227 -0.34925,-0.56509 3.57089,1.21982 8.71142,3.96647 14.76566,7.88949 45.62552,16.93652 53.22899,15.60487 2.18075,-0.38193 2.5066,-0.29618 1.11909,0.2945 -2.58828,1.10187 7.94274,2.23229 18.35415,1.97018 l 7.60331,-0.19141 -9,-0.68198 c -7.92021,-0.60016 -7.4403,-0.65043 4,-0.41899 7.96721,0.16117 12.03216,-0.0618 10.5,-0.57596 -1.70976,-0.57376 -0.91952,-0.67437 2.5,-0.3183 3.71221,0.38656 4.61366,0.24509 3.5,-0.54925 -1.13355,-0.80852 -0.64495,-0.92752 2,-0.4871 2.76511,0.46043 3.18505,0.34139 2,-0.5669 -1.22049,-0.93547 -1.06936,-1.02816 0.81108,-0.49742 2.9927,0.84466 15.69867,-3.34132 28.68892,-9.45156 11.67219,-5.49026 33.67805,-18.21824 37.98437,-21.9698 1.89959,-1.65488 2.35395,-1.84432 1.25,-0.52117 -2.16119,2.59031 -2.26936,4.11015 -0.16843,2.36654 2.39527,-1.9879 4.43406,-6.51185 4.43406,-9.83892 0,-3.65504 -2.45645,-5.57626 -9.92445,-7.76204 -5.09088,-1.49003 -5.50399,-1.47888 -6.71796,0.18133 -0.71144,0.97295 -1.08789,2.10171 -0.83657,2.50837 0.25133,0.40665 -0.21309,1.29545 -1.03203,1.97512 -0.81894,0.67963 -1.48899,0.90052 -1.48899,0.49083 0,-0.40969 -0.67005,-0.1888 -1.48899,0.49086 -0.81894,0.67967 -1.2355,1.64592 -0.92567,2.14722 0.30983,0.50131 0.19237,0.80003 -0.26101,0.66383 -0.45338,-0.1362 -3.97433,1.59631 -7.82433,3.85003 -3.85,2.25372 -9.8125,5.11431 -13.25,6.35686 -6.16247,2.22754 -8.38568,3.65512 -4,2.5685 1.44421,-0.35782 1.17562,-0.04 -0.75,0.88751 -1.65,0.79474 -3.675,1.43365 -4.5,1.4198 -0.99845,-0.0168 -0.83126,-0.34119 0.5,-0.97026 2.08343,-0.98451 2.12541,-0.98943 -6.81986,0.79962 -2.62083,0.52417 -2.79183,0.72361 -1.13333,1.32185 1.23442,0.44528 0.29721,0.67526 -2.54681,0.62496 -2.475,-0.0438 -11.025,0.74419 -19,1.75104 -15.41358,1.94597 -34.20872,1.73484 -49.62077,-0.55742 -11.31905,-1.6835 -8.06775,-2.17188 5.2846,-0.7938 7.39213,0.76293 18.40677,1.00521 29.33617,0.64527 24.76546,-0.81559 42.10601,-4.42401 58.70663,-12.21634 10.5021,-4.92968 15.03873,-8.11761 19.41494,-13.64303 2.91235,-3.67714 3.03491,-4.19023 2.36979,-9.92098 -0.4631,-3.99006 -1.35424,-6.65151 -2.62291,-7.83345 -1.99697,-1.86046 -2.79964,-5.49619 -6.86431,-31.09207 -2.49957,-15.7402 -6.6219,-28.93999 -11.33292,-36.28829 -5.88666,-9.18208 -20.11098,-20.70401 -28.67122,-23.22413 l -2.5,-0.736 2.5,2.87421 2.5,2.87421 -2.71918,-2.39536 c -1.49555,-1.31745 -2.50102,-2.74834 -2.23439,-3.17976 0.26663,-0.43143 -4.06157,-2.2746 -9.61822,-4.09594 -9.31049,-3.05177 -10.21382,-3.57674 -11.51561,-6.69236 -1.68068,-4.02243 -1.69243,-4.13658 -0.42602,-4.13658 0.54262,0 1.60231,1.47364 2.35486,3.27476 1.24645,2.98318 2.18901,3.5258 10.58568,6.09413 14.92064,4.56383 24.32659,9.82764 33.12907,18.53987 12.30927,12.18307 16.15875,22.21599 21.5373,56.13282 2.10124,13.25033 3.16087,17.5833 4.63609,18.95768 1.23334,1.14903 2.28633,4.21708 2.96576,8.64116 0.57941,3.77277 1.17061,7.32371 1.3138,7.89099 0.14318,0.56727 2.53339,1.61398 5.31158,2.326 5.70867,1.46309 10.17928,5.03235 10.17928,8.12696 0,3.45061 -2.56008,8.33844 -6.0315,11.51563 -1.8028,1.65 -2.92059,2.37912 -2.48397,1.62027 0.54519,-0.94755 0.35871,-1.22163 -0.59533,-0.875 -0.76406,0.2776 -1.29435,0.95804 -1.17842,1.51208 0.11594,0.55405 -0.55906,0.9478 -1.5,0.875 -0.94093,-0.0728 -1.60368,0.41396 -1.47278,1.08166 0.14675,0.74852 -0.39544,0.97094 -1.41404,0.58006 -1.02718,-0.39416 -1.40495,-0.23414 -0.99877,0.42309 0.37152,0.60112 -0.0969,0.9979 -1.08595,0.91994 -0.95658,-0.0754 -1.63214,0.40921 -1.50124,1.07691 0.14675,0.74852 -0.39544,0.97094 -1.41404,0.58006 -1.06068,-0.40702 -1.40851,-0.23989 -0.97169,0.46689 0.37419,0.60547 0.15348,1.42647 -0.49047,1.82445 -0.77343,0.47801 -0.90143,0.28773 -0.37711,-0.56063 0.53237,-0.8614 0.3363,-1.11806 -0.59549,-0.77951 -0.76406,0.2776 -1.2821,0.99479 -1.1512,1.59374 0.13741,0.62871 -0.46028,0.82106 -1.41404,0.45506 -1.06068,-0.40702 -1.40851,-0.23989 -0.97169,0.46689 0.37419,0.60547 0.15348,1.42647 -0.49047,1.82445 -0.77343,0.47801 -0.90143,0.28773 -0.37711,-0.56063 0.53237,-0.8614 0.3363,-1.11806 -0.59549,-0.77951 -0.76406,0.2776 -1.2821,0.99479 -1.1512,1.59374 0.13741,0.62871 -0.46028,0.82106 -1.41404,0.45506 -1.19713,-0.45938 -1.42665,-0.26924 -0.8335,0.6905 0.53342,0.86309 0.43126,1.08509 -0.29327,0.6373 -0.6115,-0.37793 -3.49353,0.64437 -6.40451,2.27179 -11.48284,6.41961 -29.98527,13.09156 -43.44873,15.66755 -6.9451,1.32882 -28.27466,1.76295 -35.84395,0.72955 z m -55.87284,-17.83716 c -3.23006,-1.94769 -6.06273,-3.35136 -6.29482,-3.11927 -0.49582,0.49581 9.70064,6.52809 11.16766,6.60684 0.55,0.0295 -1.64278,-1.53988 -4.87284,-3.48757 z m 16.37284,9.5464 c -0.825,-0.53316 -1.05,-0.96937 -0.5,-0.96937 0.55,0 1.675,0.43621 2.5,0.96937 0.825,0.53316 1.05,0.96937 0.5,0.96937 -0.55,0 -1.675,-0.43621 -2.5,-0.96937 z m 10.75,-19.66228 c 0.6875,-0.27741 1.8125,-0.27741 2.5,0 0.6875,0.27741 0.125,0.50439 -1.25,0.50439 -1.375,0 -1.9375,-0.22698 -1.25,-0.50439 z m 86.0625,-0.0208 c 0.72187,-0.28887 1.58437,-0.25335 1.91667,0.0789 0.33229,0.33229 -0.25834,0.56864 -1.3125,0.52522 -1.16495,-0.048 -1.4019,-0.28494 -0.60417,-0.60416 z M 191.77443,555.50758 c -1.58016,-1.74605 -1.50697,-2.23669 1.2505,-8.38257 1.6109,-3.59038 3.41218,-6.82665 4.00285,-7.1917 0.59067,-0.36506 -0.26645,2.1696 -1.9047,5.63257 -3.26768,6.90726 -3.58436,8.79219 -1.78023,10.59631 0.66,0.66 0.95474,1.2 0.65499,1.2 -0.29976,0 -1.30029,-0.83457 -2.22341,-1.85461 z m -18.5964,-6.07965 c -1.98462,-3.7083 -1.23728,-7.85644 1.82307,-10.11906 2.69873,-1.99526 2.89549,-2.65273 3.52534,-11.77994 1.81438,-26.29202 9.92013,-55.1124 20.15633,-71.66674 7.27285,-11.7619 18.63475,-21.07225 30.54196,-25.0272 2.86577,-0.95185 5.06323,-2.35463 5.41252,-3.45515 0.95479,-3.00828 4.52526,-7.01765 6.24944,-7.01765 0.87927,0 2.36153,0.69037 3.2939,1.53416 1.41477,1.28035 2.50314,1.35126 6.57874,0.42863 2.68594,-0.60804 10.59553,-0.98059 17.57687,-0.8279 10.81767,0.2366 12.97195,0.0255 14.57874,-1.42863 2.48058,-2.2449 4.97989,-2.31538 2.74183,-0.0773 -0.89592,0.89591 -1.37137,2.30015 -1.05657,3.12052 0.44038,1.14759 0.0501,1.34567 -1.69249,0.85891 -1.24567,-0.34797 -7.21486,-0.9019 -13.26486,-1.23096 -8.37458,-0.45549 -12.64661,-0.2091 -17.89898,1.03231 -6.17713,1.45999 -7.07474,1.47154 -8.57874,0.11044 -2.39051,-2.16338 -3.52934,-1.89746 -4.917,1.14813 -1.07165,2.35201 -1.0354,2.5186 0.30586,1.40546 0.83689,-0.69456 2.06136,-1.08292 2.72106,-0.86302 0.65969,0.2199 -2.36268,2.15098 -6.71638,4.2913 -4.3537,2.14032 -8.81582,4.8367 -9.91582,5.99195 -1.1,1.15526 -1.55,1.43268 -1,0.61649 1.82032,-2.7013 -7.63643,3.21024 -13.13517,8.21098 -2.91588,2.65179 -7.12237,7.60179 -9.34777,11 -9.93253,15.16708 -18.94907,47.13561 -20.63076,73.14729 -0.65789,10.17592 -0.66501,10.19799 -3.65357,11.32604 -2.88425,1.08868 -2.97659,1.31555 -2.51035,6.16774 0.53153,5.53181 0.35688,5.98835 -1.1872,3.10322 z m 104.92887,-76.7798 c -1.26357,-3.18227 -3.57888,-8.37344 -5.14512,-11.53594 -1.56625,-3.1625 -2.65472,-5.75 -2.41882,-5.75 1.4778,0 11.26178,21.67144 10.24364,22.68959 -0.21026,0.21025 -1.41612,-2.22139 -2.6797,-5.40365 z m -32.23396,-13.62871 c -3.17345,-6.13648 -4.87235,-10.03223 -3.77533,-8.65723 2.35323,2.94954 10.49833,18.8845 9.93413,19.43501 -0.21389,0.2087 -2.98535,-4.6413 -6.1588,-10.77778 z m -20.0103,2.84277 c 3.48165,-4.46408 13.28021,-14.2744 13.28021,-13.29616 0,0.34576 -3.68998,4.37884 -8.19996,8.9624 -4.50998,4.58357 -6.79609,6.53376 -5.08025,4.33376 z m 76.66754,-5.75 c -4.25193,-7.07244 -7.60495,-11.88018 -11.33057,-16.24637 l -2.55676,-2.99636 2.73746,2.4089 c 2.9242,2.57323 11.40486,14.45821 14.15264,19.83383 2.77128,5.42159 0.99087,3.64283 -3.00277,-3 z m 4.75693,1.5 c -1.0912,-2.55004 -1.06651,-2.60886 0.33949,-0.80887 0.83394,1.06762 1.51625,2.30512 1.51625,2.75 0,1.51991 -0.67833,0.81036 -1.85574,-1.94113 z m 15.44803,-8 c -2.02998,-3.1625 -2.6448,-4.51941 -1.36626,-3.01535 2.52404,2.96924 6.14247,8.76535 5.47209,8.76535 -0.22823,0 -2.07585,-2.5875 -4.10583,-5.75 z m -54.59229,2.75 c -0.5887,-1.1 -0.84537,-2 -0.57037,-2 0.275,0 0.98167,0.9 1.57037,2 0.5887,1.1 0.84537,2 0.57037,2 -0.275,0 -0.98167,-0.9 -1.57037,-2 z m -7.398,-10.15784 c -0.8811,-1.25794 -1.602,-2.59302 -1.602,-2.96684 0,-0.79153 6.13617,-3.07248 6.7132,-2.49545 0.21389,0.21389 -1.0532,0.89161 -2.81576,1.50604 -3.13212,1.09186 -3.16359,1.16252 -1.39051,3.12175 0.99778,1.10253 1.5628,2.25594 1.25561,2.56314 -0.3072,0.30719 -1.27944,-0.47069 -2.16054,-1.72864 z m 56.27044,-0.59216 c -1.24387,-1.58606 -1.2085,-1.62143 0.37756,-0.37755 1.66575,1.30636 2.19548,2.12755 1.37244,2.12755 -0.20765,0 -0.99515,-0.7875 -1.75,-1.75 z"
       id="path3829"
       inkscape:connector-curvature="0" />
  </g>
</svg>
