<?xml version="1.0" encoding="UTF-8" standalone="no"?><svg xmlns="http://www.w3.org/2000/svg" xmlns:xlink="http://www.w3.org/1999/xlink" contentScriptType="application/ecmascript" contentStyleType="text/css" height="563px" preserveAspectRatio="none" style="width:689px;height:563px;" version="1.1" viewBox="0 0 689 563" width="689px" zoomAndPan="magnify"><defs><filter height="300%" id="fydzgwr" width="300%" x="-1" y="-1"><feGaussianBlur result="blurOut" stdDeviation="2.0"/><feColorMatrix in="blurOut" result="blurOut2" type="matrix" values="0 0 0 0 0 0 0 0 0 0 0 0 0 0 0 0 0 0 .4 0"/><feOffset dx="4.0" dy="4.0" in="blurOut2" result="blurOut3"/><feBlend in="SourceGraphic" in2="blurOut3" mode="normal"/></filter></defs><g><line style="stroke: #A80036; stroke-width: 1.0; stroke-dasharray: 5.0,5.0;" x1="166" x2="166" y1="38.2969" y2="525.2891"/><line style="stroke: #A80036; stroke-width: 1.0; stroke-dasharray: 5.0,5.0;" x1="411.5" x2="411.5" y1="38.2969" y2="525.2891"/><line style="stroke: #A80036; stroke-width: 1.0; stroke-dasharray: 5.0,5.0;" x1="504.5" x2="504.5" y1="38.2969" y2="525.2891"/><line style="stroke: #A80036; stroke-width: 1.0; stroke-dasharray: 5.0,5.0;" x1="639" x2="639" y1="38.2969" y2="525.2891"/><rect fill="#FEFECE" filter="url(#fydzgwr)" height="30.2969" style="stroke: #A80036; stroke-width: 1.5;" width="51" x="139" y="3"/><text fill="#000000" font-family="sans-serif" font-size="14" lengthAdjust="spacingAndGlyphs" textLength="37" x="146" y="22.9951">Node</text><rect fill="#FEFECE" filter="url(#fydzgwr)" height="30.2969" style="stroke: #A80036; stroke-width: 1.5;" width="51" x="139" y="524.2891"/><text fill="#000000" font-family="sans-serif" font-size="14" lengthAdjust="spacingAndGlyphs" textLength="37" x="146" y="544.2842">Node</text><rect fill="#FEFECE" filter="url(#fydzgwr)" height="30.2969" style="stroke: #A80036; stroke-width: 1.5;" width="46" x="386.5" y="3"/><text fill="#000000" font-family="sans-serif" font-size="14" lengthAdjust="spacingAndGlyphs" textLength="32" x="393.5" y="22.9951">Chef</text><rect fill="#FEFECE" filter="url(#fydzgwr)" height="30.2969" style="stroke: #A80036; stroke-width: 1.5;" width="46" x="386.5" y="524.2891"/><text fill="#000000" font-family="sans-serif" font-size="14" lengthAdjust="spacingAndGlyphs" textLength="32" x="393.5" y="544.2842">Chef</text><rect fill="#FEFECE" filter="url(#fydzgwr)" height="30.2969" style="stroke: #A80036; stroke-width: 1.5;" width="112" x="446.5" y="3"/><text fill="#000000" font-family="sans-serif" font-size="14" lengthAdjust="spacingAndGlyphs" textLength="98" x="453.5" y="22.9951">ForemanProxy</text><rect fill="#FEFECE" filter="url(#fydzgwr)" height="30.2969" style="stroke: #A80036; stroke-width: 1.5;" width="112" x="446.5" y="524.2891"/><text fill="#000000" font-family="sans-serif" font-size="14" lengthAdjust="spacingAndGlyphs" textLength="98" x="453.5" y="544.2842">ForemanProxy</text><rect fill="#FEFECE" filter="url(#fydzgwr)" height="30.2969" style="stroke: #A80036; stroke-width: 1.5;" width="75" x="600" y="3"/><text fill="#000000" font-family="sans-serif" font-size="14" lengthAdjust="spacingAndGlyphs" textLength="61" x="607" y="22.9951">Foreman</text><rect fill="#FEFECE" filter="url(#fydzgwr)" height="30.2969" style="stroke: #A80036; stroke-width: 1.5;" width="75" x="600" y="524.2891"/><text fill="#000000" font-family="sans-serif" font-size="14" lengthAdjust="spacingAndGlyphs" textLength="61" x="607" y="544.2842">Foreman</text><polygon fill="#A80036" points="399.5,65.2969,409.5,69.2969,399.5,73.2969,403.5,69.2969" style="stroke: #A80036; stroke-width: 1.0;"/><line style="stroke: #A80036; stroke-width: 1.0;" x1="166.5" x2="405.5" y1="69.2969" y2="69.2969"/><text fill="#000000" font-family="sans-serif" font-size="13" lengthAdjust="spacingAndGlyphs" textLength="86" x="173.5" y="64.3638">ask for runlist</text><polygon fill="#A80036" points="177.5,94.4297,167.5,98.4297,177.5,102.4297,173.5,98.4297" style="stroke: #A80036; stroke-width: 1.0;"/><line style="stroke: #A80036; stroke-width: 1.0;" x1="171.5" x2="410.5" y1="98.4297" y2="98.4297"/><text fill="#000000" font-family="sans-serif" font-size="13" lengthAdjust="spacingAndGlyphs" textLength="221" x="183.5" y="93.4966">sends runlist and node's attributes</text><polygon fill="#A80036" points="492.5,123.5625,502.5,127.5625,492.5,131.5625,496.5,127.5625" style="stroke: #A80036; stroke-width: 1.0;"/><line style="stroke: #A80036; stroke-width: 1.0;" x1="166.5" x2="498.5" y1="127.5625" y2="127.5625"/><text fill="#000000" font-family="sans-serif" font-size="13" lengthAdjust="spacingAndGlyphs" textLength="109" x="173.5" y="122.6294">ask for ENC yaml</text><polygon fill="#FBFB77" filter="url(#fydzgwr)" points="456,140.6953,552,140.6953,562,151.6953,552,163.6953,456,163.6953,446,151.6953,456,140.6953" style="stroke: #A80036; stroke-width: 1.0;"/><text fill="#000000" font-family="sans-serif" font-size="13" lengthAdjust="spacingAndGlyphs" textLength="92" x="458" y="156.7622">authentication</text><polygon fill="#A80036" points="627.5,185.8281,637.5,189.8281,627.5,193.8281,631.5,189.8281" style="stroke: #A80036; stroke-width: 1.0;"/><line style="stroke: #A80036; stroke-width: 1.0;" x1="504.5" x2="633.5" y1="189.8281" y2="189.8281"/><text fill="#000000" font-family="sans-serif" font-size="13" lengthAdjust="spacingAndGlyphs" textLength="111" x="511.5" y="184.895">get ENC for Node</text><polygon fill="#A80036" points="515.5,214.9609,505.5,218.9609,515.5,222.9609,511.5,218.9609" style="stroke: #A80036; stroke-width: 1.0;"/><line style="stroke: #A80036; stroke-width: 1.0;" x1="509.5" x2="638.5" y1="218.9609" y2="218.9609"/><text fill="#000000" font-family="sans-serif" font-size="13" lengthAdjust="spacingAndGlyphs" textLength="62" x="521.5" y="214.0278">ENC yaml</text><polygon fill="#A80036" points="177.5,244.0938,167.5,248.0938,177.5,252.0938,173.5,248.0938" style="stroke: #A80036; stroke-width: 1.0;"/><line style="stroke: #A80036; stroke-width: 1.0;" x1="171.5" x2="503.5" y1="248.0938" y2="248.0938"/><text fill="#000000" font-family="sans-serif" font-size="13" lengthAdjust="spacingAndGlyphs" textLength="62" x="183.5" y="243.1606">ENC yaml</text><polygon fill="#FBFB77" filter="url(#fydzgwr)" points="18,261.2266,315,261.2266,325,272.2266,315,284.2266,18,284.2266,8,272.2266,18,261.2266" style="stroke: #A80036; stroke-width: 1.0;"/><text fill="#000000" font-family="sans-serif" font-size="13" lengthAdjust="spacingAndGlyphs" textLength="293" x="20" y="277.2935">Merge attributes from Chef and Foreman ENC</text><rect fill="#EEEEEE" filter="url(#fydzgwr)" height="3" style="stroke: #EEEEEE; stroke-width: 1.0;" width="681" x="3" y="309.9258"/><line style="stroke: #000000; stroke-width: 1.0;" x1="3" x2="684" y1="309.9258" y2="309.9258"/><line style="stroke: #000000; stroke-width: 1.0;" x1="3" x2="684" y1="312.9258" y2="312.9258"/><rect fill="#EEEEEE" filter="url(#fydzgwr)" height="23.1328" style="stroke: #000000; stroke-width: 2.0;" width="170" x="258.5" y="299.3594"/><text fill="#000000" font-family="sans-serif" font-size="13" font-weight="bold" lengthAdjust="spacingAndGlyphs" textLength="151" x="264.5" y="315.4263">Chef-client coverges</text><polygon fill="#A80036" points="492.5,349.4922,502.5,353.4922,492.5,357.4922,496.5,353.4922" style="stroke: #A80036; stroke-width: 1.0;"/><line style="stroke: #A80036; stroke-width: 1.0;" x1="166.5" x2="498.5" y1="353.4922" y2="353.4922"/><text fill="#000000" font-family="sans-serif" font-size="13" lengthAdjust="spacingAndGlyphs" textLength="78" x="173.5" y="348.5591">upload facts</text><polygon fill="#FBFB77" filter="url(#fydzgwr)" points="456,366.625,552,366.625,562,377.625,552,389.625,456,389.625,446,377.625,456,366.625" style="stroke: #A80036; stroke-width: 1.0;"/><text fill="#000000" font-family="sans-serif" font-size="13" lengthAdjust="spacingAndGlyphs" textLength="92" x="458" y="382.6919">authentication</text><polygon fill="#A80036" points="627.5,411.7578,637.5,415.7578,627.5,419.7578,631.5,415.7578" style="stroke: #A80036; stroke-width: 1.0;"/><line style="stroke: #A80036; stroke-width: 1.0;" x1="504.5" x2="633.5" y1="415.7578" y2="415.7578"/><text fill="#000000" font-family="sans-serif" font-size="13" lengthAdjust="spacingAndGlyphs" textLength="89" x="511.5" y="410.8247">forwards facts</text><polygon fill="#A80036" points="492.5,440.8906,502.5,444.8906,492.5,448.8906,496.5,444.8906" style="stroke: #A80036; stroke-width: 1.0;"/><line style="stroke: #A80036; stroke-width: 1.0;" x1="166.5" x2="498.5" y1="444.8906" y2="444.8906"/><text fill="#000000" font-family="sans-serif" font-size="13" lengthAdjust="spacingAndGlyphs" textLength="86" x="173.5" y="439.9575">upload report</text><polygon fill="#FBFB77" filter="url(#fydzgwr)" points="456,458.0234,552,458.0234,562,469.0234,552,481.0234,456,481.0234,446,469.0234,456,458.0234" style="stroke: #A80036; stroke-width: 1.0;"/><text fill="#000000" font-family="sans-serif" font-size="13" lengthAdjust="spacingAndGlyphs" textLength="92" x="458" y="474.0903">authentication</text><polygon fill="#A80036" points="627.5,503.1563,637.5,507.1563,627.5,511.1563,631.5,507.1563" style="stroke: #A80036; stroke-width: 1.0;"/><line style="stroke: #A80036; stroke-width: 1.0;" x1="504.5" x2="633.5" y1="507.1563" y2="507.1563"/><text fill="#000000" font-family="sans-serif" font-size="13" lengthAdjust="spacingAndGlyphs" textLength="86" x="511.5" y="502.2231">upload report</text></g></svg>