<svg xmlns="http://www.w3.org/2000/svg" width="140" height="62" viewBox="0, 0, 140, 62"><g id="Layer_1" fill="#5C2D73"><path d="M5.628 14.375v22.751c0 8.954 7.413 16.239 16.524 16.239h13.493l.319-.012c3.036-.114 5.426-2.54 5.44-5.523l.001-.177V24.874c0-8.954-7.413-16.239-16.525-16.239H11.647l-.338.001-.039-.001a5.674 5.674 0 0 0-3.94 1.589 5.496 5.496 0 0 0-1.696 3.851l-.006.3zm30.738 40.719H22.152c-4.883 0-9.475-1.869-12.928-5.262-3.454-3.394-5.356-7.906-5.356-12.706V13.702l.024-.023A7.195 7.195 0 0 1 6.098 8.99a7.428 7.428 0 0 1 4.867-2.077l.006-.006.266-.001H24.88c4.884 0 9.476 1.869 12.93 5.263 3.453 3.393 5.355 7.905 5.355 12.705v23.17l-.005.01c-.127 3.691-3.029 6.684-6.759 7.004l-.035.036zM12.894 28.761c.932 0 1.691-.746 1.691-1.662V16.403a.81.81 0 0 1 .806-.712l10.013-.003h.794c.933 0 1.691-.746 1.691-1.663 0-.916-.758-1.661-1.691-1.661H12.616l-.031.001a1.404 1.404 0 0 0-1.378 1.265l-.002.018v8.298l-.002.032v5.121c0 .916.758 1.662 1.691 1.662zm5.681 5.581c.932 0 1.69-.746 1.69-1.662V21.984a.809.809 0 0 1 .806-.712c.02 0 .038-.002.054-.003h10.753c.932 0 1.691-.746 1.691-1.663 0-.916-.759-1.662-1.691-1.662H18.147l-.013.009a1.386 1.386 0 0 0-1.248 1.256l-.002.019v8.304l-.001.028-.001 5.12c0 .916.759 1.662 1.693 1.662zm1.748 9.686l8.381-.002.023-.003a1.39 1.39 0 0 0 1.364-1.263l.002-.019V29.292c0-.917-.758-1.662-1.69-1.662-.933 0-1.693.745-1.693 1.67v10.688a.809.809 0 0 1-.805.712.497.497 0 0 0-.058.003H15.099c-.932 0-1.691.745-1.691 1.661 0 .918.759 1.664 1.691 1.664h5.224zm5.678 5.609l.039-.001h8.328l.056-.004c.709-.019 1.304-.567 1.363-1.264l.002-.018-.001-8.297.003-.025v-5.126c0-.917-.759-1.663-1.692-1.663-.932 0-1.691.746-1.691 1.663l.001.027v10.668a.811.811 0 0 1-.807.712.592.592 0 0 0-.064.004l-10.741-.001c-.933 0-1.691.746-1.691 1.662 0 .917.758 1.663 1.691 1.663h5.204zm-5.236-2.459h10.858l.024-.005c.851-.023 1.567-.681 1.64-1.518l.001-.018V34.885a.806.806 0 0 1 .811-.782c.448 0 .812.358.812.799v5.081a1.427 1.427 0 0 0-.002.07v8.258a.525.525 0 0 1-.523.457.489.489 0 0 0-.054.003h-8.3l-.049.002h-5.186a.805.805 0 0 1-.811-.799c0-.429.347-.78.779-.796zm-5.658-5.611h10.775l.041-.001.017-.002c.857-.018 1.578-.679 1.649-1.52l.001-.018V29.292c0-.44.365-.798.813-.798.447 0 .81.358.81.798v5.11l-.001.034.001 8.265a.528.528 0 0 1-.525.458.433.433 0 0 0-.053.003l-8.301-.001-.053.002h-5.182a.807.807 0 0 1-.812-.799c0-.439.365-.797.82-.797zm2.655-13.975l.002-.066v-8.258a.521.521 0 0 1 .524-.458l.156-.002h13.434c.447 0 .811.358.811.798 0 .44-.364.798-.811.798H21.093l-.051.003h-.003c-.857.016-1.58.678-1.653 1.52l-.001 10.753c0 .44-.363.797-.81.797a.806.806 0 0 1-.813-.797v-5.088zm-5.679-5.579l.002-.068v-8.258a.526.526 0 0 1 .523-.458l.029-.001h13.561c.448 0 .811.358.811.797 0 .44-.363.798-.811.798h-.795l-10.012.003c-.87 0-1.61.668-1.685 1.52l-.001 10.753c0 .44-.364.797-.811.797a.805.805 0 0 1-.811-.797v-5.086z" id="Combined-Shape"/><g id="Group-48"><path d="M58.455 24.564l-1.254 2.607c-1.385-.806-3.125-1.369-4.192-1.369-.861 0-1.442.319-1.442.957 0 2.269 6.926.975 6.926 5.721 0 2.627-2.321 4.015-5.241 4.015-2.19 0-4.436-.825-5.99-2.101l1.292-2.57c1.348 1.182 3.369 1.97 4.735 1.97 1.049 0 1.704-.394 1.704-1.145 0-2.326-6.926-.938-6.926-5.59 0-2.42 2.078-3.959 5.222-3.959 1.891 0 3.819.582 5.166 1.464" id="Fill-1"/><path d="M69.087 28.428l-2.321 1.407a2.419 2.419 0 0 0-2.04-1.05c-1.254 0-2.115 1.031-2.115 2.551 0 1.557.861 2.57 2.115 2.57.917 0 1.628-.375 2.058-1.144l2.359 1.388c-.824 1.482-2.452 2.345-4.586 2.345-3.107 0-5.203-2.063-5.203-5.14 0-3.114 2.115-5.197 5.241-5.197 2.002 0 3.612.826 4.492 2.27" id="Fill-4"/><path d="M76.181 32.949v-.9h-2.04c-.974 0-1.46.338-1.46 1.088 0 .732.524 1.201 1.422 1.201 1.011 0 1.872-.563 2.078-1.389m3.182-3.17v6.604h-3.164v-1.164c-.655.863-1.722 1.314-3.088 1.314-2.152 0-3.463-1.314-3.463-3.171 0-1.913 1.367-3.039 3.875-3.058h2.658v-.15c0-.994-.655-1.595-1.966-1.595-.842 0-1.946.301-3.013.845l-.917-2.139c1.572-.732 2.995-1.144 4.679-1.144 2.77 0 4.38 1.369 4.399 3.658" id="Fill-6"/><path d="M81.665 36.383h3.238V22.462h-3.238z" id="Fill-8"/><path d="M93.887 30.454c0-1.238-.786-2.045-1.946-2.045-1.123 0-1.891.826-2.097 2.045h4.043zm3.107 1.745H89.9c.318 1.201 1.179 1.876 2.377 1.876.88 0 1.741-.356 2.415-1.032l1.703 1.67c-1.029 1.125-2.545 1.782-4.398 1.782-3.295 0-5.353-2.063-5.353-5.14 0-3.133 2.133-5.197 5.259-5.197 3.556 0 5.316 2.345 5.091 6.041z" id="Fill-10"/><path d="M107.813 36.383l-1.984-6.417-1.984 6.417h-3.22l-3.687-10.112h3.294l2.078 6.997 2.021-6.997h3.089l2.077 6.997 2.041-6.997h3.163l-3.687 10.112z" id="Fill-11"/><path d="M121.196 32.949v-.9h-2.04c-.974 0-1.46.338-1.46 1.088 0 .732.524 1.201 1.422 1.201 1.011 0 1.872-.563 2.078-1.389m3.182-3.17v6.604h-3.164v-1.164c-.655.863-1.722 1.314-3.088 1.314-2.152 0-3.463-1.314-3.463-3.171 0-1.913 1.367-3.039 3.875-3.058h2.658v-.15c0-.994-.655-1.595-1.966-1.595-.842 0-1.946.301-3.013.845l-.917-2.139c1.572-.732 2.995-1.144 4.679-1.144 2.77 0 4.38 1.369 4.399 3.658" id="Fill-12"/><path d="M131.771 37.433c-.749 1.839-2.022 2.739-3.893 2.739-1.123 0-2.04-.337-2.939-1.032l1.348-2.213c.468.375.861.544 1.329.544.58 0 .992-.263 1.254-.807l.243-.507-4.193-9.886h3.332l2.471 6.716 2.19-6.716h3.219l-4.361 11.162z" id="Fill-13"/></g></g></svg>